<svg width="1200" height="1200" viewBox="0 0 1200 1200" fill="none" xmlns="http://www.w3.org/2000/svg">
<rect x="600" width="600" height="600" fill="#D9D9D9" fill-opacity="0.05"/>
<rect y="600" width="600" height="600" fill="#D9D9D9" fill-opacity="0.05"/>
<g clip-path="url(#clip0_1_16)">
<path d="M887.76 169.708C895.521 166.115 904.479 166.115 912.24 169.708L1026.09 222.313C1030.52 224.344 1033.33 228.771 1033.33 233.667C1033.33 238.563 1030.52 242.99 1026.09 245.021L912.24 297.625C904.479 301.219 895.521 301.219 887.76 297.625L773.906 245.021C769.479 242.938 766.667 238.51 766.667 233.667C766.667 228.823 769.479 224.344 773.906 222.313L887.76 169.708ZM998.385 276.167L1026.09 288.979C1030.52 291.01 1033.33 295.438 1033.33 300.333C1033.33 305.229 1030.52 309.656 1026.09 311.688L912.24 364.292C904.479 367.885 895.521 367.885 887.76 364.292L773.906 311.688C769.479 309.604 766.667 305.177 766.667 300.333C766.667 295.49 769.479 291.01 773.906 288.979L801.615 276.167L880.781 312.729C892.969 318.354 907.031 318.354 919.219 312.729L998.385 276.167V276.167ZM919.219 379.396L998.385 342.833L1026.09 355.646C1030.52 357.677 1033.33 362.104 1033.33 367C1033.33 371.896 1030.52 376.323 1026.09 378.354L912.24 430.958C904.479 434.552 895.521 434.552 887.76 430.958L773.906 378.354C769.479 376.271 766.667 371.844 766.667 367C766.667 362.156 769.479 357.677 773.906 355.646L801.615 342.833L880.781 379.396C892.969 385.021 907.031 385.021 919.219 379.396Z" fill="white" fill-opacity="0.15"/>
</g>
<path d="M412.5 243.75H337.5V225H412.5V243.75ZM178.125 187.5C162.598 187.5 150 200.098 150 215.625V253.125C150 268.652 162.598 281.25 178.125 281.25H421.875C437.402 281.25 450 268.652 450 253.125V215.625C450 200.098 437.402 187.5 421.875 187.5H178.125ZM412.5 356.25V375H262.5V356.25H412.5ZM178.125 318.75C162.598 318.75 150 331.348 150 346.875V384.375C150 399.902 162.598 412.5 178.125 412.5H421.875C437.402 412.5 450 399.902 450 384.375V346.875C450 331.348 437.402 318.75 421.875 318.75H178.125Z" fill="white" fill-opacity="0.15"/>
<g clip-path="url(#clip1_1_16)">
<path d="M848.438 768.75C848.438 758.379 856.816 750 867.188 750H876.562C886.934 750 895.312 758.379 895.312 768.75H900C910.371 768.75 918.75 777.129 918.75 787.5V918.75C918.75 929.121 910.371 937.5 900 937.5H895.312C895.312 947.871 886.934 956.25 876.562 956.25H867.188C856.816 956.25 848.438 947.871 848.438 937.5H843.75C833.379 937.5 825 929.121 825 918.75V787.5C825 777.129 833.379 768.75 843.75 768.75H848.438ZM768.75 1012.5H937.5C978.926 1012.5 1012.5 978.926 1012.5 937.5C1012.5 896.074 978.926 862.5 937.5 862.5V825C999.609 825 1050 875.391 1050 937.5C1050 966.328 1039.16 992.578 1021.35 1012.5H1031.25C1041.62 1012.5 1050 1020.88 1050 1031.25C1050 1041.62 1041.62 1050 1031.25 1050H937.5H768.75C758.379 1050 750 1041.62 750 1031.25C750 1020.88 758.379 1012.5 768.75 1012.5ZM815.625 975H928.125C933.281 975 937.5 979.219 937.5 984.375C937.5 989.531 933.281 993.75 928.125 993.75H815.625C810.469 993.75 806.25 989.531 806.25 984.375C806.25 979.219 810.469 975 815.625 975Z" fill="white" fill-opacity="0.15"/>
</g>
<g clip-path="url(#clip2_1_16)">
<path d="M346.125 780.563C338.156 778.266 329.859 782.906 327.563 790.875L267.563 1000.88C265.266 1008.84 269.906 1017.14 277.875 1019.44C285.844 1021.73 294.141 1017.09 296.437 1009.13L356.437 799.125C358.734 791.156 354.094 782.859 346.125 780.563V780.563ZM383.906 836.859C378.047 842.719 378.047 852.234 383.906 858.094L425.766 900L383.859 941.906C378 947.766 378 957.281 383.859 963.141C389.719 969 399.234 969 405.094 963.141L457.594 910.641C463.453 904.781 463.453 895.266 457.594 889.406L405.094 836.906C399.234 831.047 389.719 831.047 383.859 836.906L383.906 836.859ZM240.141 836.859C234.281 831 224.766 831 218.906 836.859L166.406 889.359C160.547 895.219 160.547 904.734 166.406 910.594L218.906 963.094C224.766 968.953 234.281 968.953 240.141 963.094C246 957.234 246 947.719 240.141 941.859L198.234 900L240.141 858.094C246 852.234 246 842.719 240.141 836.859Z" fill="white" fill-opacity="0.15"/>
</g>
<defs>
<clipPath id="clip0_1_16">
<rect width="300" height="266.667" fill="white" transform="translate(750 167)"/>
</clipPath>
<clipPath id="clip1_1_16">
<rect width="300" height="300" fill="white" transform="translate(750 750)"/>
</clipPath>
<clipPath id="clip2_1_16">
<rect width="300" height="240" fill="white" transform="translate(162 780)"/>
</clipPath>
</defs>
</svg>
